Coordinates
version=1
nRows=5
nColumns=40
inDegrees=yes

Units are S.I. units (second, meters, Newtons, ...)
If the header above contains a line with 'inDegrees', this indicates whether rotational values are in degrees (yes) or radians (no).

endheader
time	pelvis_tilt	pelvis_list	pelvis_rotation	pelvis_tx	pelvis_ty	pelvis_tz	hip_flexion_r	hip_adduction_r	hip_rotation_r	knee_angle_r	knee_angle_r_beta	ankle_angle_r	subtalar_angle_r	mtp_angle_r	hip_flexion_l	hip_adduction_l	hip_rotation_l	knee_angle_l	knee_angle_l_beta	ankle_angle_l	subtalar_angle_l	mtp_angle_l	lumbar_extension	lumbar_bending	lumbar_rotation	arm_flex_r	arm_add_r	arm_rot_r	elbow_flex_r	pro_sup_r	wrist_flex_r	wrist_dev_r	arm_flex_l	arm_add_l	arm_rot_l	elbow_flex_l	pro_sup_l	wrist_flex_l	wrist_dev_l
      0.79000000	     -3.54518580	     -6.61589388	     89.89885269	      0.20893661	      0.87706505	      0.95866643	     34.15432095	     -2.87726265	     -0.25184520	      2.32470423	      0.04057374	      4.48242429	      0.00000000	      0.00000000	    -18.20768284	      6.21471816	      8.91659231	     -0.49812407	     -0.00869391	     15.25990365	      0.00000000	      0.00000000	     -3.14920730	     -5.32060517	     -7.69566052	      0.00000000	      0.00000000	      0.00000000	      0.00000000	      0.00000000	      0.00000000	      0.00000000	      0.00000000	      0.00000000	      0.00000000	      0.00000000	      0.00000000	      0.00000000	      0.00000000
      0.80000000	     -3.31192007	     -6.52829806	     89.89893974	      0.20963414	      0.87525494	      0.94315562	     33.95085843	     -2.40580016	      0.33001262	      3.02651184	      0.05282260	      2.46367664	      0.00000000	     -0.00000000	    -18.50600493	      5.95723143	      8.73866957	      1.15298268	      0.02012334	     15.88106936	     -0.00000000	     -0.00000000	     -3.03804579	     -4.87465832	     -7.78016531	      0.00000000	      0.00000000	     -0.00000000	      0.00000000	      0.00000000	      0.00000000	     -0.00000000	     -0.00000000	      0.00000000	      0.00000000	      0.00000000	      0.00000000	      0.00000000	     -0.00000000
      0.81000000	     -3.05196295	     -6.48920963	     89.89714165	      0.21033444	      0.87367704	      0.92756950	     33.91009392	     -1.94211650	      0.88015787	      4.14752549	      0.07238798	      0.58444080	      0.00000000	      0.00000000	    -18.58058392	      5.67286009	      8.48974097	      3.00888962	      0.05251503	     15.69741052	      0.00000000	      0.00000000	     -2.85763090	     -4.39406294	     -7.75199696	      0.00000000	      0.00000000	      0.00000000	      0.00000000	      0.00000000	      0.00000000	      0.00000000	      0.00000000	      0.00000000	      0.00000000	      0.00000000	      0.00000000	      0.00000000	      0.00000000
      0.82000000	     -2.78700024	     -6.40605168	     89.89489656	      0.21103168	      0.87251469	      0.91192417	     33.88847327	     -1.50784107	      1.39025730	      5.51631276	      0.09627782	     -1.46188434	      0.00000000	      0.00000000	    -18.46713236	      5.38561767	      8.08117260	      5.21606016	      0.09103742	     15.26508508	      0.00000000	      0.00000000	     -2.72831605	     -3.90034697	     -7.74243454	      0.00000000	      0.00000000	      0.00000000	      0.00000000	      0.00000000	      0.00000000	      0.00000000	      0.00000000	      0.00000000	      0.00000000	      0.00000000	      0.00000000	      0.00000000	      0.00000000
      0.83000000	     -2.49620687	     -6.27446237	     89.89179298	      0.21177441	      0.87179310	      0.89620933	     33.88022467	     -1.07759046	      1.80096506	      7.12763386	      0.12440068	     -3.45009476	      0.00000000	      0.00000000	    -18.15727393	      5.05481253	      7.46331720	      7.77349747	      0.13567313	     14.50158224	      0.00000000	      0.00000000	     -2.65151852	     -3.37917342	     -7.72881253	      0.00000000	      0.00000000	      0.00000000	      0.00000000	      0.00000000	      0.00000000	      0.00000000	      0.00000000	      0.00000000	      0.00000000	      0.00000000	      0.00000000	      0.00000000	      0.00000000
